<svg width="28" height="32" viewBox="0 0 28 32" fill="none" xmlns="http://www.w3.org/2000/svg">
<g clip-path="url(#clip0_41_227)">
<path d="M14.0063 8.81257C10.0313 8.81257 6.82505 12.0188 6.82505 15.9938C6.82505 19.9688 10.0313 23.1751 14.0063 23.1751C17.9813 23.1751 21.1875 19.9688 21.1875 15.9938C21.1875 12.0188 17.9813 8.81257 14.0063 8.81257ZM14.0063 20.6626C11.4375 20.6626 9.33754 18.5688 9.33754 15.9938C9.33754 13.4188 11.4313 11.3251 14.0063 11.3251C16.5813 11.3251 18.675 13.4188 18.675 15.9938C18.675 18.5688 16.575 20.6626 14.0063 20.6626ZM23.1563 8.51882C23.1563 9.45007 22.4063 10.1938 21.4813 10.1938C20.55 10.1938 19.8063 9.44382 19.8063 8.51882C19.8063 7.59382 20.5563 6.84382 21.4813 6.84382C22.4063 6.84382 23.1563 7.59382 23.1563 8.51882ZM27.9125 10.2188C27.8063 7.97507 27.2938 5.98757 25.65 4.35007C24.0125 2.71257 22.025 2.20007 19.7813 2.08757C17.4688 1.95632 10.5375 1.95632 8.22505 2.08757C5.98755 2.19382 4.00005 2.70632 2.3563 4.34382C0.712549 5.98132 0.206299 7.96882 0.0937988 10.2126C-0.0374512 12.5251 -0.0374512 19.4563 0.0937988 21.7688C0.200049 24.0126 0.712549 26.0001 2.3563 27.6376C4.00005 29.2751 5.9813 29.7876 8.22505 29.9001C10.5375 30.0313 17.4688 30.0313 19.7813 29.9001C22.025 29.7938 24.0125 29.2813 25.65 27.6376C27.2875 26.0001 27.8 24.0126 27.9125 21.7688C28.0438 19.4563 28.0438 12.5313 27.9125 10.2188ZM24.925 24.2501C24.4375 25.4751 23.4938 26.4188 22.2625 26.9126C20.4188 27.6438 16.0438 27.4751 14.0063 27.4751C11.9688 27.4751 7.58754 27.6376 5.75005 26.9126C4.52505 26.4251 3.5813 25.4813 3.08755 24.2501C2.3563 22.4063 2.52505 18.0313 2.52505 15.9938C2.52505 13.9563 2.36255 9.57507 3.08755 7.73757C3.57505 6.51257 4.5188 5.56882 5.75005 5.07507C7.59379 4.34382 11.9688 4.51257 14.0063 4.51257C16.0438 4.51257 20.425 4.35007 22.2625 5.07507C23.4875 5.56257 24.4313 6.50632 24.925 7.73757C25.6563 9.58132 25.4875 13.9563 25.4875 15.9938C25.4875 18.0313 25.6563 22.4126 24.925 24.2501Z" fill="#3C3A47"/>
</g>
<defs>
<clipPath id="clip0_41_227">
<rect width="28" height="32" fill="white"/>
</clipPath>
</defs>
</svg>
