<svg width="64" height="64" viewBox="0 0 64 64" fill="none" xmlns="http://www.w3.org/2000/svg">
<circle cx="32" cy="32" r="32" fill="#3C3A47"/>
<g clip-path="url(#clip0_41_163)">
<path d="M46.8275 12.2666H36.5972C33.8976 12.2666 31.5227 14.115 30.8528 16.7353L27.8081 28.6179C27.1586 31.0554 24.9461 32.782 22.4088 32.782H9.31653C8.36252 32.782 7.57089 33.5741 7.75357 34.4882C8.5452 38.4288 12.0365 41.4147 16.2179 41.4147H24.5401C28.5186 41.4147 31.888 38.7131 32.8624 35.0366C33.1871 33.7976 34.1817 32.782 35.4605 32.782H44.4323C45.4472 32.782 46.3403 32.0913 46.5839 31.1164L50.2782 16.7353C50.8668 14.4603 49.1618 12.2666 46.8275 12.2666ZM45.7314 18.5634C45.569 19.2134 44.9803 19.6603 44.3105 19.6603H34.7704C34.202 19.6603 33.7758 19.1118 33.9382 18.5634C34.1005 17.9134 34.6892 17.4665 35.359 17.4665H44.8992C45.4675 17.4665 45.8735 18.015 45.7314 18.5634Z" fill="white"/>
<path d="M39.1142 49.6004H36.7393C35.3184 49.6004 34.1412 48.4426 34.1412 47.0005V43.9943C34.1412 42.5724 35.2982 41.3943 36.7393 41.3943H31.4009H26.0625C27.4834 41.3943 28.6607 42.5521 28.6607 43.9943V47.0005C28.6607 48.4223 27.5037 49.6004 26.0625 49.6004H23.6876C22.7336 49.6004 21.9623 50.3723 21.9623 51.327V51.7129H31.4009H40.8395V51.327C40.8395 50.3926 40.0682 49.6004 39.1142 49.6004Z" fill="white"/>
</g>
<defs>
<clipPath id="clip0_41_163">
<rect width="42.6667" height="39.4667" fill="white" transform="translate(7.73328 12.2666)"/>
</clipPath>
</defs>
</svg>
